<svg width="380" height="272" viewBox="0 0 380 272" fill="none" xmlns="http://www.w3.org/2000/svg">
<g clip-path="url(#clip0_54_338)">
<path d="M295.791 123.348C295.081 121.519 296.096 120.604 296.502 118.978C296.908 117.353 295.588 112.272 295.588 112.272C295.588 112.272 291.325 94.6926 290.005 91.2378C289.447 89.7758 288.234 88.77 287.021 88.0947C286.938 87.6462 286.819 87.357 286.655 87.2748C285.48 86.6859 282.55 85.4073 280.598 85.0538C280.233 84.4258 279.8 83.8398 279.307 83.3065C279.65 82.6479 279.809 81.909 279.767 81.1676C279.643 79.2505 278.193 77.5326 278.381 75.6207C278.524 74.1708 279.583 72.9797 279.992 71.5813C280.163 70.9532 280.204 70.2966 280.111 69.6522C280.018 69.0078 279.794 68.3894 279.453 67.8353C279.753 68.1551 280.053 68.4749 280.353 68.7946C280.762 68.1818 280.959 67.4519 280.913 66.7166C280.868 65.9813 280.583 65.2811 280.102 64.7233C279.152 63.6719 277.562 63.2776 276.824 62.0668C276.066 60.8226 276.473 59.132 275.756 57.8635C274 54.7562 269.505 56.9589 266.812 55.8744C265.705 55.4287 264.864 54.9382 263.619 54.9734C262.561 55.0342 261.514 55.2298 260.505 55.5555C259.058 55.9748 257.798 56.8788 256.936 58.1164C257.021 58.0195 257.114 57.9302 257.215 57.8496C257.867 57.3378 259.012 57.3804 259.356 58.1351C259.439 58.3248 259.473 58.5318 259.457 58.738C259.4 59.6478 258.606 60.3272 257.817 60.7825C257.028 61.2378 256.141 61.6187 255.626 62.3706C254.776 63.6114 255.276 65.2766 255.276 66.781C255.269 67.737 255.048 68.6793 254.629 69.5385C254.21 70.3977 253.604 71.1519 252.855 71.7456L255.72 70.5734C254.352 72.9696 253.454 75.6053 253.075 78.3387L256.947 75.1359C255.513 77.4212 254.641 80.0147 254.404 82.7032L257.513 79.5146C257.654 79.7637 257.725 80.0467 257.718 80.3332L257.393 81.5848C257.279 81.8332 257.152 82.0757 257.013 82.3113C256.513 83.1711 255.996 84.2295 256.464 85.1074L256.466 85.1062C255.973 86.7649 255.23 88.4245 253.578 89.231C255.411 89.423 257.324 88.5055 258.152 87.0452C258.287 87.308 258.45 87.5553 258.638 87.7829C258.691 87.8496 258.744 87.9158 258.796 87.982L258.34 88.2869L257.115 89.1039C257.115 89.1039 249.096 90.7297 249.604 93.7781C249.624 93.9035 249.649 94.0532 249.678 94.2211L247.37 98.1475L244.02 109.528C244.02 109.528 242.295 113.186 242.599 114.711C242.904 116.235 242.599 116.844 242.599 119.588C242.599 122.332 241.28 123.449 242.599 125.685C243.919 127.92 247.878 134.424 247.878 134.424L248.747 135.076C248.705 135.469 248.72 135.865 248.791 136.253C249.604 140.317 257.217 179.235 257.217 179.235C257.217 179.235 253.359 210.024 261.176 211.955C262.156 212.197 263.119 212.417 264.054 212.612L265.236 220.389L264.526 230.245C264.526 230.245 259.146 242.439 268.992 243.15C278.839 243.862 274.372 232.582 274.372 232.582C274.892 231.619 275.105 230.52 274.981 229.432C274.881 228.528 274.036 223.821 273.207 219.293C276.944 218.845 276.245 214.875 275.747 213.13C275.962 213.004 276.124 212.802 276.2 212.565C276.312 212.159 276.05 210.565 275.575 208.33C275.188 206.109 274.527 202.513 274.075 200.077L276.504 200.472L286.757 140.317C286.757 140.317 286.824 139.36 286.794 137.959C288.195 137.233 289.641 136.595 291.122 136.049C294.472 134.728 295.791 129.851 296.908 127.819C298.025 125.786 296.502 125.177 295.791 123.348ZM259.389 85.0467C259.721 84.8178 260.109 84.6858 260.512 84.6654C260.425 85.1381 259.613 85.2762 258.932 85.5237C259.057 85.3406 259.211 85.1794 259.389 85.0467ZM254.273 115.32C255.096 116.673 253.606 120.338 252.265 123.246C251.496 122.583 250.693 122.792 251.634 120.909C252.275 119.716 252.656 118.399 252.75 117.048C252.75 116.815 252.869 115.108 253.87 114.399C253.975 114.718 254.11 115.027 254.273 115.32ZM251.192 126.994C251.658 126.804 252.362 126.513 253.314 126.189C252.858 126.788 252.338 127.502 251.814 128.281C251.616 128.13 251.457 127.936 251.349 127.712C251.241 127.488 251.187 127.242 251.192 126.994ZM284.118 128.327C283.5 127.67 283.002 127.083 282.591 126.558C283.357 126.76 284.136 126.977 284.93 127.209C285.325 127.268 285.728 127.241 286.112 127.13C286.148 127.833 286.148 128.835 286.148 128.835L285.036 129.605C284.782 129.144 284.474 128.714 284.118 128.327V128.327ZM287.268 124.803C287.256 124.813 287.243 124.825 287.231 124.836C287.176 124.434 287.086 124.038 286.96 123.653C286.295 121.552 285.939 117.826 285.75 114.646L287.67 121.112C287.67 121.112 287.772 124.364 287.268 124.803Z" fill="#D0CDE1"/>
<path d="M247.836 98.0943C247.836 98.0943 237.422 80.1765 237.096 78.2219C236.771 76.2672 231.564 72.6836 231.564 72.6836C229.784 70.9027 226.865 70.3392 223.793 70.3685C224.95 69.4105 220.82 68.7665 220.498 68.1227C220.173 67.4712 219.196 67.4712 217.895 66.4939C216.593 65.5166 213.343 66.3309 213.343 66.331C212.854 65.3021 212.514 64.2089 212.334 63.0842C213.72 61.4417 214.48 59.3598 214.477 57.2092C214.477 57.1858 214.476 57.1628 214.476 57.1394C214.558 57.2685 214.641 57.3984 214.724 57.5322C215.334 53.8766 216.41 50.838 214.359 47.5033C212.905 45.1399 210.629 43.3982 207.969 42.6137L206.016 44.1781L206.775 42.3534C206.136 42.2558 205.49 42.2184 204.844 42.2416L203.087 44.5039L203.814 42.3191C202.289 42.5089 200.819 43.0129 199.498 43.7994C198.178 44.5859 197.034 45.6379 196.139 46.889C193.902 50.118 194.052 54.6065 196.252 57.8607C196.259 57.838 196.265 57.8157 196.273 57.7929C196.37 59.3153 196.847 60.789 197.66 62.079C198.474 63.369 199.598 64.4342 200.929 65.1769L201.481 69.603C200.984 70.0653 200.346 70.3471 199.669 70.4032C198.693 70.4032 197.717 73.0094 197.717 73.0094C197.717 73.0094 197.163 73.289 196.567 74.6086C195.03 75.6555 190.344 78.9443 188.605 81.2425C187.577 81.7491 186.472 82.8761 186.651 85.389C186.977 89.9499 186.651 111.125 186.651 111.125C186.651 111.125 183.722 129.043 184.699 130.346C185.675 131.649 184.373 135.885 184.373 135.885L185.349 136.102V137.188C185.349 137.188 182.413 150.815 186.977 150.219C194.462 149.241 188.929 138.165 188.929 138.165V136.898L190.231 137.188C190.231 137.188 190.882 132.627 192.184 132.301C192.637 132.188 193.168 130.97 193.669 129.431C193.961 131.832 194.137 133.278 194.137 133.278L196.173 132.825L196.74 134.907C196.88 134.986 197.026 135.052 197.178 135.106L196.74 137.513C196.74 137.513 196.415 140.12 196.74 141.749C196.904 142.57 202.946 160.129 208.894 177.334L208.782 181.493C208.782 181.493 205.853 184.751 206.504 187.032C207.155 189.312 204.877 208.207 204.877 208.207L202.924 217.655L203.415 217.806L202.964 219.462C202.576 219.658 202.23 219.93 201.947 220.261C199.344 223.193 196.089 231.663 196.089 231.663C196.089 231.663 190.231 240.459 199.344 240.133C208.457 239.808 209.107 236.55 209.107 236.55C209.107 236.55 210.409 228.08 210.409 227.754C210.409 227.428 209.758 224.079 209.758 224.079L209.506 223.8L209.682 219.736L211.386 220.261C211.386 220.261 213.013 211.791 214.315 210.813C214.77 210.472 215.98 206.667 217.362 201.78C218.775 205.851 220.143 219.93 220.587 221.208C220.429 221.423 220.291 221.651 220.173 221.89C218.71 224.7 217.08 227.42 215.291 230.034C215.291 230.034 204.877 236.224 215.291 237.853C215.291 237.853 221.149 238.179 224.078 236.224C227.007 234.269 234.818 231.337 234.818 230.686C234.818 230.034 232.865 220.457 230.913 221.499L229.605 218.487L230.913 217.981L222.673 180.959C222.868 180.17 223.011 179.369 223.102 178.561C223.102 176.855 227.316 143.636 228.388 135.211C233.108 136.549 237.422 126.763 237.422 126.763L238.492 124.835L240.025 125.785C240.025 125.785 241.327 122.528 243.28 122.202C245.232 121.876 248.812 104.61 248.812 102.329C248.783 100.865 248.45 99.4234 247.836 98.0943ZM232.673 123.619C232.352 123.11 231.981 122.635 231.564 122.202C232.414 119.983 233.068 117.694 233.516 115.361C234.167 111.777 232.54 100.049 232.54 100.049L232.511 99.2525C234.109 101.351 236.12 104.15 236.12 104.936C236.12 105.315 236.208 105.689 236.378 106.028C236.547 106.368 236.793 106.663 237.096 106.89L235.143 113.732C235.143 113.732 233.842 116.989 233.516 118.618C233.321 119.584 233.212 120.565 233.191 121.55L233.652 121.836L232.673 123.619Z" fill="#D0CDE1"/>
<path d="M98.8431 104.124L100.58 103.733L93.4199 83.5348L77.9609 77.8337C77.9609 77.8337 77.9017 77.8995 77.7924 78.0127C76.4738 76.7353 75.9141 74.8817 75.6803 73.4226C76.9235 72.92 78.0405 72.1488 78.9516 71.1642C79.8627 70.1796 80.5455 69.0058 80.9512 67.7266C81.3568 66.4474 81.4754 65.0943 81.2985 63.764C81.1215 62.4336 80.6534 61.1587 79.9275 60.0303C81.2014 59.7243 81.6562 58.5675 82.0837 57.1881C81.819 57.1099 81.549 57.051 81.2758 57.012C81.4761 56.5623 81.6764 56.1127 81.8768 55.663C81.5247 55.6313 81.1726 55.5997 80.8206 55.5681C80.9106 55.1477 81.0006 54.7274 81.0906 54.307C80.6416 54.6173 80.1926 54.9275 79.7437 55.2378C79.8962 54.7965 79.9341 54.3236 79.8538 53.8636C79.7736 53.4036 79.5779 52.9716 79.285 52.6082C78.6888 51.887 77.9111 51.3381 77.0323 51.0181C75.3135 50.3412 73.4416 50.1515 71.6221 50.4698C69.8027 50.7881 68.106 51.6022 66.7185 52.8225L66.6212 52.4429C63.8736 54.5572 62.0757 57.6759 61.6218 61.1152C61.1908 64.5148 62.8223 67.9764 64.9429 70.6666C64.925 70.5492 64.9059 70.432 64.8864 70.3151C64.9781 70.4415 65.0727 70.5655 65.1704 70.687L65.4311 80.6028L64.7782 81.163C64.7772 81.1635 53.8241 86.1238 53.3972 92.0485L53.3959 92.0528C52.7385 94.9371 52.413 109.923 52.413 109.923H53.3143L52.413 115.787L46.5549 138.591C46.5549 138.591 39.0695 148.365 45.5786 150.319C49.6233 151.534 50.7773 146.836 51.0716 143.105C51.3059 144.03 52.0068 144.655 53.3894 144.781C53.4982 144.791 53.6144 144.799 53.7267 144.808C50.6491 152.77 52.7385 178.662 52.7385 178.662C51.1112 181.92 70.3128 204.398 70.3128 204.398L71.469 203.781L71.7193 204.282C71.0758 204.344 70.6383 204.398 70.6383 204.398V214.498C70.6383 214.498 67.7092 224.597 71.6146 226.551C72.6252 227.057 73.6792 226.689 74.6867 225.868C74.4942 228.984 74.2182 233.635 74.2182 234.696C74.2182 236.325 78.4491 239.257 78.4491 239.257C78.4491 239.257 79.4255 242.84 87.2363 242.84C95.0471 242.84 89.189 233.393 89.189 233.393L84.9581 223.945C84.9581 223.945 84.6416 224.1 83.6836 223.319L84.0267 219.541L85.9345 219.71L88.5381 181.594C88.5381 181.594 90.8163 147.713 91.1417 142.501C91.218 140.829 91.1786 139.155 91.024 137.489L100.58 117.742L98.8431 104.124ZM91.7926 116.764L90.8163 120.17V112.638L91.7926 116.764ZM51.1623 140.923C51.1704 139.73 51.1112 138.917 51.1112 138.917L57.4738 126.179L57.2948 130.121C57.2948 130.121 52.1992 136.573 51.1623 140.923ZM66.082 177.685L72.2656 155.858L75.8455 182.246L75.5888 191.839C75.1529 190.957 74.8029 190.036 74.5437 189.087C73.5673 185.178 66.082 177.685 66.082 177.685Z" fill="#D0CDE1"/>
<path d="M154.153 229.534C151.104 228.277 145.185 225.584 144.467 224.148C143.75 222.711 140.162 211.579 140.162 211.579L139.238 211.646C139.119 206.589 138.611 186.989 137.83 184.646C137.83 184.646 141.597 153.583 134.063 141.194L132.706 135.704C133.152 133.504 133.094 128.408 132.808 127.548C132.449 126.47 136.934 123.059 135.678 120.904C134.422 118.749 131.014 111.388 131.014 111.388C131.014 111.388 131.373 106.719 126.53 102.41C126.53 102.41 125.115 94.3895 118.737 94.27C117.875 92.7639 116.668 90.369 117.023 89.3026C117.403 88.1609 118.857 84.6015 119.678 82.6093C120.114 82.4121 120.533 82.1787 120.93 81.9117C126.002 79.6368 129.578 74.1683 129.578 67.7799C129.578 60.9412 125.482 55.1537 119.837 53.213C120.089 52.5496 120.191 51.8391 120.138 51.1316C120.085 50.4241 119.878 49.7368 119.53 49.1185C119.183 48.5001 118.704 47.9657 118.127 47.5529C117.551 47.1402 116.891 46.8592 116.194 46.7298C115.497 46.6004 114.78 46.6258 114.094 46.8042C113.408 46.9826 112.77 47.3096 112.224 47.7621C111.678 48.2146 111.238 48.7816 110.935 49.423C110.632 50.0644 110.473 50.7646 110.47 51.4741C110.16 50.7376 110.037 49.9355 110.111 49.1396C110.186 48.3437 110.456 47.5787 110.898 46.9129C111.34 46.247 111.94 45.7011 112.644 45.3238C113.348 44.9465 114.135 44.7496 114.933 44.7507C115.248 44.7511 115.561 44.7821 115.869 44.8431C114.806 44.3369 113.595 44.2361 112.462 44.5599C111.33 44.8836 110.355 45.6095 109.719 46.6016C109.083 47.5937 108.83 48.7839 109.008 49.9491C109.186 51.1143 109.782 52.1746 110.685 52.9312C110.741 53.1085 110.807 53.2824 110.883 53.4521C105.571 55.5976 101.783 61.2026 101.783 67.7799C101.783 73.8809 105.043 79.1437 109.755 81.5865C109.73 83.5711 109.238 86.917 106.504 88.9561C105.091 88.3101 103.131 87.601 101.874 87.9226C101.223 87.4152 100.242 87.2476 98.9063 88.5844C96.2157 91.2777 93.8838 98.2803 93.8838 102.59C93.8838 106.899 94.4219 131.857 94.4219 131.857C94.4219 131.857 91.5519 132.934 93.525 134.55C93.9326 134.89 94.4439 135.08 94.9742 135.089L96.9331 149.633C96.9331 149.633 95.6775 163.638 100.521 163.818C100.9 163.838 101.278 163.746 101.605 163.551L98.0094 179.798C98.0094 179.798 89.7582 185.184 83.3007 195.778C79.9748 201.235 78.3165 204.591 77.4883 206.567L76.3051 205.833L72.1796 213.734C72.1796 213.734 63.0315 219.3 65.0046 223.429C66.9777 227.559 68.7715 228.637 68.7715 228.637L70.0271 228.098L72.3589 232.407C72.3589 232.407 78.4576 241.205 88.3232 236.716C88.7862 236.094 89.0362 235.338 89.0362 234.562C89.0362 233.786 88.7862 233.03 88.3232 232.407C86.7088 230.073 82.5832 225.045 82.5832 225.045L85.2738 211.399L84.7171 211.054L101.776 190.392C101.776 190.392 106.799 187.339 108.592 184.646C110.386 181.952 121.507 154.122 121.507 154.122L127.785 183.209C127.785 183.209 127.427 193.803 129.041 200.626C129.921 204.453 130.495 208.345 130.757 212.264L130.297 212.297L131.373 220.377C131.373 220.377 126.709 231.869 129.938 232.766C132.235 233.36 134.573 233.78 136.934 234.023L137.292 232.766C137.292 232.766 151.104 240.308 156.127 234.741C156.126 234.741 157.203 230.791 154.153 229.534ZM105.005 141.373C105.543 141.912 105.364 144.426 105.364 144.426L104.287 151.428L103.213 156.285C103.064 153.991 102.764 151.708 102.314 149.453L101.818 136.034C101.915 136.095 102.023 136.14 102.135 136.166C102.494 136.166 102.314 133.114 102.314 133.114C102.314 133.114 102.524 132.569 102.785 131.708C103.482 133.798 104.334 135.162 105.364 135.448L105.543 137.782C105.543 137.782 103.211 138.859 105.364 138.859C105.489 138.855 105.613 138.836 105.733 138.805L105.543 139.757C105.543 139.757 104.467 140.835 105.005 141.373Z" fill="#D0CDE1"/>
<path d="M151.087 237.899C230.722 237.899 295.279 236.833 295.279 235.519C295.279 234.206 230.722 233.14 151.087 233.14C71.4528 233.14 6.89624 234.206 6.89624 235.519C6.89624 236.833 71.4528 237.899 151.087 237.899Z" fill="#3F3D56"/>
<path d="M201.553 247.812C289.151 247.812 360.163 245.06 360.163 241.666C360.163 238.271 289.151 235.519 201.553 235.519C113.956 235.519 42.944 238.271 42.944 241.666C42.944 245.06 113.956 247.812 201.553 247.812Z" fill="#3F3D56"/>
<path d="M172.28 256.932C215.27 256.932 250.12 254.18 250.12 250.786C250.12 247.391 215.27 244.64 172.28 244.64C129.291 244.64 94.4409 247.391 94.4409 250.786C94.4409 254.18 129.291 256.932 172.28 256.932Z" fill="#3F3D56"/>
<path d="M284.781 261.294C303.924 261.294 319.442 259.874 319.442 258.122C319.442 256.37 303.924 254.949 284.781 254.949C265.638 254.949 250.12 256.37 250.12 258.122C250.12 259.874 265.638 261.294 284.781 261.294Z" fill="#3F3D56"/>
<path d="M237.246 272C246.325 272 253.685 270.58 253.685 268.828C253.685 267.076 246.325 265.656 237.246 265.656C228.166 265.656 220.806 267.076 220.806 268.828C220.806 270.58 228.166 272 237.246 272Z" fill="#3F3D56"/>
<path d="M103.354 258.518C112.433 258.518 119.793 257.098 119.793 255.346C119.793 253.594 112.433 252.174 103.354 252.174C94.2745 252.174 86.9144 253.594 86.9144 255.346C86.9144 257.098 94.2745 258.518 103.354 258.518Z" fill="#3F3D56"/>
<path d="M184.56 219.46L186.145 230.563L194.067 229.77L193.275 218.27L184.56 219.46Z" fill="#FFB8B8"/>
<path d="M146.928 219.46L145.343 230.563L137.421 229.77L138.213 218.27L146.928 219.46Z" fill="#FFB8B8"/>
<path d="M135.44 104.467C135.44 104.467 128.31 112.794 129.894 125.88C131.479 138.965 134.252 168.705 134.252 168.705L136.232 221.443L148.909 220.65L150.889 175.842L157.227 139.758L174.261 181.79C174.261 181.79 182.58 221.046 182.976 221.046C183.372 221.046 194.86 219.857 194.86 219.857L189.314 173.463C189.314 173.463 180.599 106.053 175.449 104.864C170.3 103.674 135.44 104.467 135.44 104.467Z" fill="#2F2E41"/>
<path d="M194.86 228.184C194.86 228.184 187.729 223.425 184.956 228.977C182.183 234.528 184.56 238.493 184.56 238.493C184.56 238.493 186.937 240.08 185.749 241.666C184.56 243.252 184.164 253.562 194.463 251.975C204.763 250.389 199.613 239.683 199.613 239.683L194.86 228.184Z" fill="#2F2E41"/>
<path d="M136.629 228.184C136.629 228.184 143.759 223.425 146.532 228.977C149.305 234.528 146.928 238.493 146.928 238.493C146.928 238.493 144.551 240.08 145.74 241.666C146.928 243.252 147.324 253.562 137.025 251.975C126.725 250.389 131.875 239.683 131.875 239.683L136.629 228.184Z" fill="#2F2E41"/>
<path d="M145.145 27.3427C145.145 27.3427 148.711 37.2559 145.938 42.8073C143.165 48.3586 150.295 54.7031 150.295 54.7031C150.295 54.7031 168.913 45.1864 166.536 40.4281C164.16 35.6698 160.198 29.3253 160.991 25.3601L145.145 27.3427Z" fill="#FFB8B8"/>
<path d="M152.078 31.1097C159.078 31.1097 164.754 25.4287 164.754 18.4208C164.754 11.413 159.078 5.73196 152.078 5.73196C145.077 5.73196 139.401 11.413 139.401 18.4208C139.401 25.4287 145.077 31.1097 152.078 31.1097Z" fill="#FFB8B8"/>
<path d="M142.967 42.2125C142.967 42.2125 155.686 52.807 165.171 37.7948L175.053 43.4021L180.203 103.674C180.203 103.674 151.285 120.328 137.421 106.053L139.402 50.143L142.967 42.2125Z" fill="#D0CDE1"/>
<path d="M146.961 36.2775L129.102 48.1602L135.44 77.5032L127.122 123.104L140.59 102.881L146.961 36.2775Z" fill="#575A89"/>
<path d="M162.744 32.97L167.131 35.868L184.956 42.2125L182.184 91.3819L189.71 123.104L179.014 128.655C179.014 128.655 177.034 113.587 164.754 106.053C152.474 98.5193 159.943 35.2269 162.744 32.97Z" fill="#575A89"/>
<path d="M133.063 110.019L138.213 113.587C138.213 113.587 131.677 120.527 130.489 119.337C130.145 119.006 129.878 118.604 129.707 118.159C129.535 117.713 129.464 117.236 129.498 116.76L128.31 113.984L133.063 110.019Z" fill="#FFB8B8"/>
<path d="M167.297 109.247L165.546 112.001C165.546 112.001 160.396 114.38 161.585 115.967C162.773 117.553 172.676 121.121 174.657 117.553L176.638 113.984L167.297 109.247Z" fill="#FFB8B8"/>
<path d="M131.479 47.7639L128.706 48.1604L124.151 77.7017C124.151 77.7017 122.368 83.0548 124.349 95.7436C126.329 108.433 128.291 116.695 128.291 116.695L137.025 110.415L133.063 100.105L138.213 62.4354L131.479 47.7639Z" fill="#575A89"/>
<path d="M178.618 41.4194L184.956 42.2125C184.956 42.2125 192.087 49.7465 193.275 57.677C194.464 65.6076 194.067 88.2096 194.067 88.2096L175.845 117.156L165.942 110.019L179.807 85.4339L173.073 56.0909L178.618 41.4194Z" fill="#575A89"/>
<path d="M164.166 6.94443C162.249 3.82855 159.248 1.53248 155.742 0.498143L153.166 2.5606L154.168 0.154975C153.326 0.0263878 152.473 -0.0229174 151.622 0.00770522L149.305 2.99009L150.264 0.109862C148.253 0.359995 146.316 1.02447 144.575 2.06137C142.833 3.09828 141.325 4.48513 140.146 6.13447C137.196 10.3914 136.699 16.3115 139.6 20.6017C140.396 18.1521 141.362 15.8536 142.159 13.404C142.785 13.4894 143.419 13.4925 144.045 13.4132L145.014 11.1504L145.285 13.3175C148.288 13.0556 152.742 12.4807 155.588 11.9539L155.312 10.2914L156.968 11.6729C157.84 11.4719 158.358 11.2897 158.315 11.1504C160.432 14.567 162.53 16.7493 164.647 20.1659C165.451 15.3466 166.87 11.3407 164.166 6.94443Z" fill="#2F2E41"/>
<path d="M163.464 19.7401C163.938 19.7401 164.322 18.971 164.322 18.0222C164.322 17.0734 163.938 16.3042 163.464 16.3042C162.99 16.3042 162.606 17.0734 162.606 18.0222C162.606 18.971 162.99 19.7401 163.464 19.7401Z" fill="#FFB8B8"/>
<path d="M300.574 242.292C300.939 254.806 293.635 259.392 284.468 259.66C284.255 259.666 284.043 259.67 283.832 259.671C283.407 259.675 282.986 259.668 282.569 259.65C274.279 259.306 267.716 254.9 267.377 243.263C267.025 231.219 281.959 215.571 283.079 214.413L283.081 214.412C283.124 214.368 283.146 214.346 283.146 214.346C283.146 214.346 300.209 229.78 300.574 242.292Z" fill="#00C9AB"/>
<path d="M283.808 257.763L289.631 249.095L283.82 258.696L283.832 259.671C283.407 259.675 282.986 259.668 282.569 259.65L282.858 247.112L282.85 247.015L282.861 246.997L282.888 245.812L276.511 236.544L282.881 244.925L282.903 245.176L283.121 235.703L277.614 226.094L283.137 234.039L283.079 214.413L283.08 214.348L283.081 214.412L283.447 229.88L288.467 223.597L283.464 231.212L283.573 239.685L288.192 231.416L283.59 240.931L283.651 245.643L290.369 234.123L283.671 247.286L283.808 257.763Z" fill="#3F3D56"/>
<path d="M88.2485 223.655C88.6136 236.169 81.3092 240.755 72.1425 241.023C71.9295 241.029 71.7176 241.033 71.5066 241.035C71.0814 241.038 70.6605 241.031 70.2436 241.013C61.9532 240.669 55.3909 236.264 55.0513 224.626C54.7 212.582 69.6337 196.934 70.7541 195.777L70.756 195.775C70.7986 195.731 70.8204 195.709 70.8204 195.709C70.8204 195.709 87.8834 211.143 88.2485 223.655Z" fill="#00C9AB"/>
<path d="M71.4825 239.127L77.3055 230.459L71.4944 240.059L71.5066 241.035C71.0815 241.038 70.6605 241.031 70.2436 241.013L70.5324 228.475L70.5245 228.379L70.5352 228.36L70.5628 227.175L64.1859 217.907L70.5553 226.289L70.5779 226.539L70.796 217.066L65.2881 207.457L70.8117 215.402L70.7541 195.777L70.7542 195.711L70.7561 195.775L71.1217 211.243L76.1415 204.96L71.1382 212.575L71.2477 221.049L75.867 212.779L71.2647 222.294L71.3257 227.006L78.0433 215.487L71.3461 228.65L71.4825 239.127Z" fill="#3F3D56"/>
<path d="M246.905 259.934C247.12 267.279 242.832 269.971 237.452 270.128C237.327 270.132 237.202 270.134 237.078 270.135C236.829 270.137 236.582 270.133 236.337 270.123C231.471 269.92 227.619 267.335 227.419 260.504C227.213 253.434 235.979 244.249 236.637 243.57L236.638 243.569C236.663 243.543 236.676 243.53 236.676 243.53C236.676 243.53 246.691 252.589 246.905 259.934Z" fill="#00C9AB"/>
<path d="M237.064 269.015L240.482 263.927L237.071 269.563L237.078 270.135C236.829 270.137 236.582 270.133 236.337 270.123L236.507 262.763L236.502 262.706L236.508 262.696L236.524 262L232.781 256.56L236.52 261.48L236.533 261.627L236.661 256.066L233.428 250.426L236.67 255.089L236.637 243.57L236.637 243.531L236.638 243.569L236.852 252.648L239.799 248.96L236.862 253.43L236.926 258.404L239.638 253.55L236.936 259.135L236.972 261.901L240.915 255.139L236.984 262.866L237.064 269.015Z" fill="#3F3D56"/>
<path d="M379.965 20.2971C379.977 20.2609 379.989 20.2243 380 20.188C379.995 20.2039 379.989 20.2192 379.984 20.2351L379.965 20.2971Z" fill="#2F2E41"/>
<path d="M324.609 230.703L353.949 187.027L324.669 235.401L324.73 240.316C322.588 240.332 320.467 240.297 318.367 240.209L319.822 177.034L319.782 176.547L319.836 176.453L319.975 170.483L287.844 123.786L319.937 166.015L320.051 167.277L321.15 119.546L293.397 71.1314L321.229 111.161L320.939 12.2752L320.939 11.9461L320.949 12.2698L322.791 90.2053L348.084 58.5479L322.874 96.9193L323.426 139.613L346.701 97.9456L323.511 145.89L323.819 169.63L357.667 111.587L323.922 177.912L324.609 230.703Z" fill="#3F3D56"/>
<path d="M25.0176 229.01L44.983 199.289L25.0585 232.207L25.1001 235.551C23.6426 235.563 22.1992 235.538 20.77 235.478L21.7602 192.49L21.7331 192.158L21.7696 192.094L21.8644 188.032L0 156.256L21.8386 184.992L21.9161 185.85L22.6641 153.371L3.7791 120.426L22.7178 147.665L22.5202 80.3761L22.5206 80.1522L22.527 80.3724L23.7806 133.405L40.992 111.863L23.837 137.974L24.2126 167.026L40.0507 138.672L24.2708 171.297L24.48 187.452L47.5127 147.955L24.55 193.087L25.0176 229.01Z" fill="#3F3D56"/>
</g>
<defs>
<clipPath id="clip0_54_338">
<rect width="380" height="272" fill="white"/>
</clipPath>
</defs>
</svg>
