<svg width="430" height="240" viewBox="0 0 430 240" fill="none" xmlns="http://www.w3.org/2000/svg">
<g clip-path="url(#clip0_50_175)">
<path d="M90.4939 239.086H24.8004C24.8004 239.086 23.4688 219.61 31.3474 219.389C39.2259 219.167 38.3382 228.02 48.2146 215.847C58.0911 203.675 70.0752 204.339 71.6288 211.532C73.1823 218.725 68.6329 224.479 76.9553 222.708C85.2777 220.938 97.2628 225.586 90.4939 239.086Z" fill="#E6E6E6"/>
<path d="M56.5385 239.091L56.3165 239.082C56.8338 226.259 59.5265 218.022 61.6949 213.367C64.0488 208.314 66.3173 206.269 66.3402 206.249L66.4878 206.414C66.4654 206.434 64.2236 208.459 61.8883 213.478C59.732 218.111 57.0538 226.316 56.5385 239.091Z" fill="white"/>
<path d="M80.3143 239.117L80.1012 239.055C81.7533 233.621 84.7315 228.68 88.7689 224.675L88.918 224.839C84.9105 228.816 81.9544 233.722 80.3143 239.117Z" fill="white"/>
<path d="M35.1479 239.102L34.9278 239.071C35.6441 234.264 34.8863 229.353 32.7537 224.982C31.8796 223.149 30.7223 221.464 29.3242 219.989L29.4779 219.829C30.8949 221.322 32.0681 223.028 32.9547 224.884C35.1064 229.294 35.8709 234.25 35.1479 239.102Z" fill="white"/>
<path d="M99.4093 239.382H17.7152L17.6965 239.106C17.6498 238.42 16.6074 222.226 21.869 216.448C22.391 215.838 23.0354 215.343 23.7607 214.996C24.4859 214.649 25.2761 214.457 26.0802 214.433C29.5097 214.335 31.6651 215.617 33.4036 216.645C36.6804 218.583 38.8446 219.864 46.7152 210.163C55.2409 199.655 64.4403 197.394 69.7285 198.651C73.1454 199.464 75.5003 201.759 76.1895 204.951C76.8436 207.972 76.6343 210.811 76.467 213.093C76.288 215.534 76.1469 217.461 77.1524 218.336C77.9935 219.065 79.6666 219.131 82.4233 218.544C88.0302 217.352 95.8555 218.372 99.7826 223.433C101.895 226.155 103.56 231.103 99.4915 239.219L99.4093 239.382ZM18.2726 238.79H99.0415C102.073 232.656 102.168 227.474 99.313 223.795C95.7101 219.153 88.1517 217.931 82.5471 219.124C79.5517 219.761 77.7673 219.656 76.7623 218.782C75.533 217.715 75.6839 215.656 75.8745 213.051C76.039 210.808 76.2432 208.015 75.6087 205.077C74.9695 202.118 72.7758 199.986 69.5902 199.229C64.4707 198.011 55.5264 200.243 47.1764 210.537C38.9839 220.635 36.5154 219.176 33.1004 217.154C31.3403 216.113 29.3424 214.932 26.0965 215.024C25.3726 215.047 24.6615 215.221 24.0091 215.535C23.3566 215.849 22.7772 216.295 22.3082 216.846C17.5807 222.039 18.1572 236.601 18.2731 238.79H18.2726Z" fill="#2F2E41"/>
<path d="M366.342 239.711H285.876L285.861 239.261L282.019 129.681H370.199L366.342 239.711ZM286.779 238.779H365.439L369.232 130.613H282.986L286.779 238.779Z" fill="#3F3D56"/>
<path d="M305.071 149.985H298.95V225.512H305.071V149.985Z" fill="#3F3D56"/>
<path d="M329.169 149.985H323.049V225.512H329.169V149.985Z" fill="#3F3D56"/>
<path d="M353.267 149.985H347.147V225.512H353.267V149.985Z" fill="#3F3D56"/>
<path d="M421.331 161.86L420.935 161.611L320.987 98.6234L329.657 84.9425L330.052 85.1914L430 148.179L421.331 161.86ZM322.276 98.3335L421.04 160.574L428.711 148.469L329.948 86.2279L322.276 98.3335Z" fill="#3F3D56"/>
<path d="M397.199 93.5468C394.294 91.7133 390.922 90.7494 387.484 90.7695C384.046 90.7896 380.686 91.7929 377.802 93.6603C374.919 95.5278 372.633 98.1809 371.216 101.305C369.8 104.429 369.311 107.893 369.809 111.285L374.575 114.289C373.378 111.515 373.102 108.433 373.788 105.492C374.474 102.551 376.087 99.9061 378.389 97.9451C380.692 95.984 383.563 94.8096 386.583 94.5938C389.603 94.3779 392.614 95.1319 395.173 96.7455C397.732 98.359 399.706 100.747 400.806 103.561C401.906 106.374 402.074 109.464 401.285 112.38C400.496 115.295 398.792 117.882 396.422 119.761C394.053 121.641 391.142 122.715 388.116 122.825L392.882 125.829C396.168 124.822 399.097 122.897 401.319 120.281C403.542 117.665 404.965 114.468 405.42 111.069C405.875 107.671 405.342 104.213 403.886 101.107C402.429 98.0016 400.11 95.3776 397.203 93.5468H397.199Z" fill="#3F3D56"/>
<path d="M424.718 239.068H0V240H424.718V239.068Z" fill="#3F3D56"/>
<path d="M185.51 232.709H178.705L175.467 206.536H185.512L185.51 232.709Z" fill="#FEB8B8"/>
<path d="M165.582 239.01H186.968V230.77H173.73C171.569 230.77 169.497 231.626 167.969 233.15C166.441 234.674 165.582 236.741 165.582 238.896V239.01Z" fill="#2F2E41"/>
<path d="M183.119 192.152L187.812 197.065L209.049 181.35L202.122 174.099L183.119 192.152Z" fill="#FEB8B8"/>
<path d="M192.648 199.316L183.514 189.758L177.532 195.444L192.288 210.884L192.371 210.806C193.146 210.069 193.767 209.188 194.2 208.212C194.634 207.236 194.87 206.185 194.896 205.118C194.921 204.051 194.736 202.99 194.35 201.994C193.965 200.999 193.386 200.089 192.648 199.316V199.316Z" fill="#2F2E41"/>
<path d="M135.755 120.444C135.324 119.753 135.05 118.977 134.953 118.169C134.856 117.361 134.938 116.542 135.192 115.769C135.447 114.996 135.868 114.288 136.427 113.695C136.985 113.102 137.667 112.639 138.425 112.337L165.141 44.4366L175.555 50.6546L145.877 115.793C146.301 117.096 146.231 118.509 145.68 119.765C145.129 121.02 144.136 122.03 142.888 122.603C141.64 123.176 140.225 123.273 138.91 122.875C137.595 122.477 136.472 121.612 135.755 120.444Z" fill="#FEB8B8"/>
<path d="M237.16 125.311C236.346 125.253 235.555 125.018 234.842 124.621C234.129 124.225 233.512 123.678 233.034 123.018C232.556 122.359 232.229 121.603 232.076 120.803C231.923 120.004 231.947 119.181 232.148 118.392L192.735 56.9485L203.897 52.1959L239.331 114.41C240.639 114.832 241.747 115.718 242.443 116.9C243.14 118.083 243.377 119.479 243.109 120.824C242.841 122.169 242.087 123.37 240.991 124.197C239.894 125.024 238.531 125.422 237.16 125.313V125.311Z" fill="#FEB8B8"/>
<path d="M165.404 113.645L172.38 217.044L189.052 215.577L192.485 139.292L201.801 172.054L221.906 173.521L213.948 108.755L165.404 113.645Z" fill="#2F2E41"/>
<path d="M204.744 167.165L201.8 172.055L181.207 186.235L195.918 194.059C195.918 194.059 224.358 178.411 221.907 173.521L204.744 167.165Z" fill="#2F2E41"/>
<path d="M150.805 71.8111L156.608 55.5031C157.9 51.8746 159.9 48.5374 162.493 45.6847C165.086 42.8321 168.22 40.5206 171.715 38.884C179.57 35.9981 188.113 35.5318 196.238 37.5453L198.349 38.0681C203.981 39.4293 209.258 41.9707 213.828 45.5232C217.404 48.3347 220.622 51.8944 220.908 55.7235C220.91 55.7317 220.912 55.7397 220.915 55.7473C221.906 60.0768 222.396 82.5701 222.396 82.5701H213.658L215.041 112.888L214.929 112.668C214.929 112.668 164.535 122.178 164.535 117.288V85.992L163.502 74.6603L150.805 71.8111Z" fill="#CCCCCC"/>
<path d="M197.843 33.3062C205.556 33.3062 211.808 27.0711 211.808 19.3797C211.808 11.6883 205.556 5.45319 197.843 5.45319C190.13 5.45319 183.878 11.6883 183.878 19.3797C183.878 27.0711 190.13 33.3062 197.843 33.3062Z" fill="#FEB8B8"/>
<path d="M199.935 13.1342L210.778 13.5675C212.143 13.5633 213.632 13.5154 214.671 12.6357C216.237 11.3082 215.975 8.80329 215.136 6.93207C212.8 1.72192 207.589 -0.14464 201.867 0.00865459C196.145 0.161949 190.149 2.09607 187.067 6.90458C183.986 11.7131 183.153 17.7852 184.314 23.3728C185.655 20.5316 187.721 18.0911 190.304 16.2948C192.888 14.4985 195.898 13.4094 199.035 13.1361L199.935 13.1342Z" fill="#2F2E41"/>
<path d="M264.327 149.355L225.078 121.924C224.713 121.668 224.465 121.278 224.388 120.84C224.311 120.402 224.411 119.952 224.666 119.587L255.472 75.7547C255.728 75.391 256.119 75.1436 256.558 75.0666C256.997 74.9896 257.449 75.0892 257.815 75.3437L297.063 102.775C297.428 103.031 297.676 103.42 297.753 103.858C297.831 104.296 297.731 104.747 297.475 105.112L266.671 148.943C266.414 149.307 266.023 149.555 265.584 149.632C265.145 149.709 264.693 149.61 264.327 149.355Z" fill="#00C9AB"/>
<path d="M273.153 119.59L250.123 103.494C249.857 103.308 249.63 103.071 249.455 102.797C249.28 102.524 249.162 102.219 249.105 101.899C249.049 101.58 249.056 101.252 249.127 100.936C249.197 100.619 249.33 100.32 249.516 100.054C249.703 99.7883 249.94 99.562 250.215 99.3878C250.489 99.2137 250.795 99.0951 251.115 99.039C251.436 98.9828 251.764 98.9901 252.081 99.0604C252.399 99.1307 252.699 99.2627 252.966 99.4489L275.996 115.545C276.534 115.921 276.9 116.495 277.014 117.14C277.128 117.785 276.98 118.449 276.603 118.985C276.226 119.522 275.651 119.887 275.004 120C274.357 120.114 273.691 119.966 273.153 119.59Z" fill="white"/>
<path d="M267.868 127.111L244.837 111.015C244.571 110.829 244.343 110.592 244.169 110.318C243.994 110.045 243.875 109.739 243.818 109.42C243.762 109.1 243.769 108.773 243.839 108.456C243.91 108.139 244.042 107.839 244.229 107.573C244.416 107.308 244.653 107.081 244.928 106.907C245.202 106.733 245.509 106.614 245.829 106.558C246.15 106.502 246.478 106.51 246.796 106.58C247.113 106.651 247.414 106.783 247.68 106.97L270.711 123.066C271.248 123.442 271.613 124.015 271.727 124.66C271.84 125.305 271.692 125.968 271.316 126.505C270.939 127.041 270.364 127.406 269.718 127.519C269.071 127.633 268.406 127.486 267.868 127.111Z" fill="white"/>
<path d="M262.525 134.712L239.495 118.616C239.229 118.43 239.002 118.193 238.827 117.92C238.652 117.646 238.533 117.341 238.477 117.021C238.421 116.702 238.428 116.375 238.499 116.058C238.569 115.741 238.702 115.442 238.888 115.176C239.075 114.911 239.312 114.684 239.587 114.51C239.861 114.336 240.167 114.217 240.487 114.161C240.808 114.105 241.136 114.112 241.453 114.183C241.771 114.253 242.071 114.385 242.338 114.571L265.368 130.667C265.906 131.043 266.272 131.617 266.386 132.262C266.5 132.907 266.352 133.571 265.975 134.107C265.598 134.644 265.023 135.009 264.376 135.122C263.729 135.236 263.063 135.088 262.525 134.712V134.712Z" fill="white"/>
<path d="M273.089 104.713L264.168 98.4781C263.902 98.2921 263.674 98.0555 263.499 97.7818C263.325 97.5082 263.205 97.2028 263.149 96.8832C263.092 96.5636 263.1 96.2361 263.17 95.9193C263.241 95.6024 263.373 95.3026 263.56 95.0369C263.747 94.7711 263.984 94.5447 264.259 94.3705C264.533 94.1963 264.84 94.0778 265.16 94.0217C265.481 93.9656 265.809 93.9731 266.127 94.0437C266.444 94.1143 266.745 94.2466 267.011 94.4331L275.932 100.668C276.469 101.044 276.836 101.617 276.949 102.262C277.063 102.907 276.915 103.571 276.538 104.108C276.161 104.644 275.586 105.009 274.939 105.123C274.292 105.236 273.627 105.089 273.089 104.713Z" fill="white"/>
</g>
<defs>
<clipPath id="clip0_50_175">
<rect width="430" height="240" fill="white"/>
</clipPath>
</defs>
</svg>
