<?xml version="1.0" standalone="no"?>
<!DOCTYPE svg PUBLIC "-//W3C//DTD SVG 20010904//EN"
 "http://www.w3.org/TR/2001/REC-SVG-20010904/DTD/svg10.dtd">
<svg version="1.0" xmlns="http://www.w3.org/2000/svg"
 width="200.000000pt" height="196.000000pt" viewBox="0 0 200.000000 196.000000"
 preserveAspectRatio="xMidYMid meet">

<g transform="translate(0.000000,196.000000) scale(0.100000,-0.100000)"
fill="#000000" stroke="none">
<path d="M1597 1876 c-130 -47 -220 -181 -203 -305 11 -87 144 -313 250 -425
40 -43 57 -45 91 -8 52 54 178 238 214 312 32 67 36 84 36 155 0 69 -4 86 -27
127 -75 127 -232 190 -361 144z m143 -126 c20 -5 50 -24 67 -42 56 -58 67
-121 33 -187 -81 -160 -312 -106 -312 74 0 73 38 125 109 151 46 16 58 17 103
4z"/>
<path d="M981 1221 c-8 -5 -11 -16 -8 -25 5 -12 21 -16 71 -16 67 0 86 10 66
35 -14 17 -106 21 -129 6z"/>
<path d="M1174 1215 c-11 -27 10 -36 72 -33 51 3 59 6 59 23 0 18 -8 20 -63
23 -50 2 -63 0 -68 -13z"/>
<path d="M1364 1215 c-10 -26 7 -35 71 -35 64 0 87 14 62 39 -17 17 -126 14
-133 -4z"/>
<path d="M838 1183 c-36 -24 -49 -55 -29 -67 14 -9 110 57 110 77 1 25 -37 21
-81 -10z"/>
<path d="M752 1068 c-15 -18 -25 -83 -17 -107 3 -12 14 -21 24 -21 15 0 20 11
25 60 9 74 -4 101 -32 68z"/>
<path d="M993 1001 c-46 -12 -117 -56 -147 -92 -43 -51 -59 -98 -59 -174 -2
-283 367 -374 507 -125 26 47 30 64 30 125 0 75 -18 123 -69 183 -53 63 -182
103 -262 83z m22 -181 l39 -40 42 41 c43 43 68 46 81 13 4 -10 -8 -30 -35 -57
l-42 -41 41 -42 c28 -28 40 -48 36 -58 -13 -33 -38 -29 -81 13 l-42 41 -41
-42 c-27 -27 -47 -39 -57 -35 -33 13 -30 38 13 81 l41 42 -40 39 c-42 41 -47
54 -28 73 19 19 32 14 73 -28z"/>
<path d="M209 836 c-134 -48 -217 -165 -207 -295 6 -90 83 -231 221 -407 59
-75 80 -79 132 -22 58 64 157 211 202 299 33 64 38 83 38 144 0 126 -73 230
-192 275 -61 23 -141 25 -194 6z m144 -130 c72 -26 108 -77 109 -155 0 -83
-44 -140 -125 -162 -87 -23 -189 45 -202 135 -8 49 16 117 53 149 22 20 86 46
112 46 8 0 32 -6 53 -13z"/>
<path d="M1340 560 c-8 -15 -6 -21 11 -30 25 -14 49 -6 49 14 0 13 -28 36 -44
36 -3 0 -10 -9 -16 -20z"/>
<path d="M1433 478 c15 -63 36 -103 56 -106 27 -4 28 27 1 86 -14 30 -25 42
-41 42 -17 0 -20 -4 -16 -22z"/>
<path d="M1446 267 c-31 -65 -32 -77 -6 -77 22 0 75 92 66 116 -11 28 -34 13
-60 -39z"/>
<path d="M1358 174 c-4 -3 -28 -8 -55 -12 -40 -6 -49 -11 -51 -30 -3 -19 1
-22 31 -22 44 0 94 17 101 35 5 14 -17 39 -26 29z"/>
<path d="M481 151 c-8 -5 -11 -16 -8 -25 5 -12 21 -16 72 -16 63 0 66 1 63 23
-3 19 -10 22 -58 25 -30 1 -61 -2 -69 -7z"/>
<path d="M670 145 c-20 -25 -1 -35 65 -35 66 0 85 10 65 35 -8 10 -31 15 -65
15 -34 0 -57 -5 -65 -15z"/>
<path d="M867 153 c-4 -3 -7 -15 -7 -25 0 -16 9 -18 70 -18 62 0 70 2 70 19 0
10 -7 22 -16 25 -21 8 -109 8 -117 -1z"/>
<path d="M1061 151 c-8 -5 -11 -16 -8 -25 5 -12 21 -16 72 -16 63 0 66 1 63
23 -3 19 -10 22 -58 25 -30 1 -61 -2 -69 -7z"/>
</g>
</svg>
