<svg width="22" height="21" viewBox="0 0 22 21" fill="none" xmlns="http://www.w3.org/2000/svg">
<path d="M21.7071 9.31641H4.26154L14.7032 0.410156C14.8702 0.266602 14.7688 0 14.5482 0H11.9094C11.7931 0 11.6828 0.0410154 11.5964 0.114258L0.328765 9.7207C0.225566 9.8086 0.142802 9.91726 0.0860791 10.0393C0.0293562 10.1614 0 10.294 0 10.4282C0 10.5624 0.0293562 10.695 0.0860791 10.8171C0.142802 10.9392 0.225566 11.0478 0.328765 11.1357L11.662 20.8008C11.7067 20.8389 11.7604 20.8594 11.817 20.8594H14.5452C14.7658 20.8594 14.8672 20.5898 14.7002 20.4492L4.26154 11.543H21.7071C21.8383 11.543 21.9456 11.4375 21.9456 11.3086V9.55078C21.9456 9.42188 21.8383 9.31641 21.7071 9.31641Z" fill="black"/>
</svg>
