<?xml version="1.0" standalone="no"?>
<!DOCTYPE svg PUBLIC "-//W3C//DTD SVG 20010904//EN"
 "http://www.w3.org/TR/2001/REC-SVG-20010904/DTD/svg10.dtd">
<svg version="1.0" xmlns="http://www.w3.org/2000/svg"
 width="98.000000pt" height="98.000000pt" viewBox="0 0 98.000000 98.000000"
 preserveAspectRatio="xMidYMid meet">

<g transform="translate(0.000000,98.000000) scale(0.100000,-0.100000)"
fill="#000000" stroke="none">
<path d="M7 763 c-4 -3 -7 -28 -7 -55 0 -42 3 -50 24 -58 51 -19 54 -72 5 -89
-28 -9 -29 -13 -29 -70 0 -57 2 -61 26 -67 50 -13 49 -75 -2 -94 -23 -9 -25
-14 -22 -62 l3 -53 485 0 485 0 3 53 c3 48 1 53 -22 62 -51 19 -52 81 -2 94
24 6 26 10 26 66 0 56 -2 60 -26 66 -50 13 -49 75 2 94 23 9 25 14 22 62 l-3
53 -481 3 c-264 1 -484 -1 -487 -5z m943 -49 c0 -8 -16 -30 -35 -48 -47 -44
-47 -78 0 -122 44 -41 44 -67 0 -108 -47 -44 -47 -78 1 -122 20 -20 34 -41 32
-52 -3 -16 -33 -17 -458 -17 -434 0 -455 1 -458 18 -2 12 8 29 27 45 18 16 34
41 37 60 6 28 2 37 -30 66 -45 43 -45 68 -1 110 24 23 35 42 35 61 0 19 -11
38 -35 61 -71 66 -86 64 425 64 411 0 460 -2 460 -16z"/>
<path d="M100 685 c0 -13 16 -15 113 -13 66 2 112 7 112 13 0 6 -46 11 -112
13 -97 2 -113 0 -113 -13z"/>
<path d="M405 681 c-168 -78 -164 -314 7 -385 134 -56 288 48 288 194 0 150
-160 253 -295 191z m165 -33 c132 -67 132 -249 0 -316 -56 -28 -104 -28 -160
1 -132 66 -132 248 0 315 24 12 60 22 80 22 20 0 56 -10 80 -22z"/>
<path d="M367 584 c-4 -4 -7 -27 -7 -51 l0 -44 48 3 47 3 0 45 0 45 -40 3
c-23 2 -44 0 -48 -4z m53 -44 c0 -11 -7 -20 -15 -20 -15 0 -21 21 -8 33 12 13
23 7 23 -13z"/>
<path d="M476 499 c-34 -84 -38 -109 -16 -109 11 0 82 179 75 191 -13 20 -25
5 -59 -82z"/>
<path d="M524 476 c-3 -8 -4 -29 -2 -48 3 -32 4 -33 48 -33 l45 0 3 48 3 47
-46 0 c-30 0 -47 -5 -51 -14z m64 -33 c-5 -25 -28 -28 -28 -4 0 12 6 21 16 21
9 0 14 -7 12 -17z"/>
<path d="M657 694 c-17 -18 14 -24 114 -24 90 0 109 3 109 15 0 12 -19 15
-108 15 -60 0 -112 -3 -115 -6z"/>
<path d="M133 588 c5 -18 119 -18 125 0 3 9 -14 12 -63 12 -49 0 -66 -3 -62
-12z"/>
<path d="M723 588 c2 -9 24 -13 62 -13 38 0 60 4 63 13 3 9 -14 12 -63 12 -49
0 -66 -3 -62 -12z"/>
<path d="M75 500 c-14 -22 13 -31 86 -28 58 2 74 6 74 18 0 12 -16 16 -77 18
-49 2 -79 -1 -83 -8z"/>
<path d="M745 500 c-14 -22 13 -31 86 -28 58 2 74 6 74 18 0 12 -16 16 -77 18
-49 2 -79 -1 -83 -8z"/>
<path d="M137 404 c-18 -18 -2 -24 59 -24 48 0 65 3 62 13 -5 13 -109 23 -121
11z"/>
<path d="M727 404 c-18 -18 -2 -24 59 -24 48 0 65 3 62 13 -5 13 -109 23 -121
11z"/>
<path d="M100 295 c0 -13 16 -15 113 -13 148 4 148 22 0 26 -97 2 -113 0 -113
-13z"/>
<path d="M657 304 c-17 -18 14 -24 114 -24 90 0 109 3 109 15 0 12 -19 15
-108 15 -60 0 -112 -3 -115 -6z"/>
</g>
</svg>
