<svg width="65" height="50" viewBox="0 0 65 50" fill="none" xmlns="http://www.w3.org/2000/svg">
<path d="M14.4349 49.8859C14.449 49.8953 14.4677 49.8906 14.4818 49.9C14.5924 49.9615 14.7162 49.9958 14.8427 50C14.9124 49.9999 14.9818 49.9904 15.049 49.9719L32.0302 45.3375L49.0115 49.9719C49.0787 49.9904 49.148 49.9999 49.2177 50C49.344 49.9962 49.4675 49.9613 49.5771 49.8984C49.5927 49.8906 49.6099 49.8938 49.624 49.8844L63.6865 41.2906C63.8317 41.2014 63.9439 41.0672 64.006 40.9085C64.068 40.7497 64.0765 40.575 64.0302 40.4109L56.2427 13.0672C56.2109 12.9533 56.1535 12.8482 56.075 12.7597C55.9965 12.6713 55.8989 12.6019 55.7896 12.5567C55.6803 12.5115 55.5622 12.4918 55.4442 12.4991C55.3261 12.5063 55.2113 12.5403 55.1083 12.5984L47.3552 16.9484C47.1854 17.0556 47.0633 17.224 47.0141 17.4187C46.965 17.6133 46.9925 17.8195 47.091 17.9945C47.1895 18.1694 47.3515 18.2998 47.5435 18.3587C47.7354 18.4177 47.9427 18.4005 48.1224 18.3109L55.0115 14.4438L62.3662 40.2656L49.8427 47.9203L46.8677 24.1219C46.842 23.9161 46.7357 23.729 46.572 23.6017C46.4083 23.4744 46.2008 23.4173 45.9951 23.443C45.7893 23.4687 45.6022 23.575 45.4749 23.7387C45.3476 23.9023 45.2905 24.1099 45.3162 24.3156L48.2958 48.1578L32.8115 43.9313V39.6656C32.8115 39.4584 32.7292 39.2597 32.5826 39.1132C32.4361 38.9667 32.2374 38.8844 32.0302 38.8844C31.823 38.8844 31.6243 38.9667 31.4778 39.1132C31.3313 39.2597 31.249 39.4584 31.249 39.6656V43.9313L15.763 48.1578L18.7427 24.3156C18.7554 24.2138 18.748 24.1104 18.7207 24.0114C18.6935 23.9124 18.647 23.8197 18.584 23.7387C18.521 23.6577 18.4426 23.5898 18.3533 23.5391C18.2641 23.4884 18.1657 23.4557 18.0638 23.443C17.9619 23.4303 17.8586 23.4377 17.7596 23.465C17.6606 23.4922 17.5679 23.5387 17.4869 23.6017C17.4058 23.6647 17.338 23.7431 17.2873 23.8324C17.2365 23.9216 17.2039 24.02 17.1912 24.1219L14.2177 47.9203L1.69428 40.2672L9.04897 14.4469L15.938 18.3141C16.1177 18.4037 16.325 18.4208 16.517 18.3619C16.7089 18.303 16.8709 18.1726 16.9694 17.9976C17.068 17.8226 17.0955 17.6165 17.0463 17.4218C16.9971 17.2271 16.875 17.0588 16.7052 16.9516L8.95053 12.6C8.84782 12.5412 8.733 12.5067 8.61488 12.4991C8.49677 12.4916 8.37849 12.5112 8.26912 12.5564C8.15976 12.6017 8.06221 12.6714 7.98396 12.7602C7.90571 12.849 7.84885 12.9546 7.81772 13.0688L0.0302215 40.4125C-0.0168791 40.5765 -0.00874577 40.7515 0.053369 40.9105C0.115484 41.0694 0.228135 41.2035 0.373972 41.2922L14.4349 49.8859Z" fill="black"/>
<path d="M31.5005 36.5125C31.644 36.6449 31.8318 36.7188 32.027 36.7197C32.2222 36.7205 32.4106 36.6483 32.5552 36.5172C33.0755 36.0438 45.3115 24.8156 45.3115 13.2812C45.3115 5.83281 39.4787 0 32.0302 0C24.5818 0 18.749 5.83281 18.749 13.2812C18.749 24.6156 30.9802 36.0312 31.5005 36.5125ZM32.0302 1.5625C38.7099 1.5625 43.749 6.6 43.749 13.2812C43.749 22.8078 34.3849 32.5578 32.0349 34.8547C29.6896 32.5312 20.3115 22.6531 20.3115 13.2812C20.3115 6.6 25.3505 1.5625 32.0302 1.5625Z" fill="black"/>
<path d="M39.0615 13.2812C39.0615 9.40469 35.9068 6.25 32.0302 6.25C28.1537 6.25 24.999 9.40469 24.999 13.2812C24.999 17.1578 28.1537 20.3125 32.0302 20.3125C35.9068 20.3125 39.0615 17.1578 39.0615 13.2812ZM32.0302 18.75C29.0146 18.75 26.5615 16.2969 26.5615 13.2812C26.5615 10.2656 29.0146 7.8125 32.0302 7.8125C35.0459 7.8125 37.499 10.2656 37.499 13.2812C37.499 16.2969 35.0459 18.75 32.0302 18.75Z" fill="black"/>
</svg>
