<svg width="51" height="46" viewBox="0 0 51 46" fill="none" xmlns="http://www.w3.org/2000/svg">
<rect width="51" height="46" fill="#F5F5F5"/>
<path d="M-235 -580C-241.627 -580 -247 -574.627 -247 -568V55C-247 61.6274 -241.627 67 -235 67H177C183.627 67 189 61.6274 189 55V-568C189 -574.627 183.627 -580 177 -580H-235Z" fill="white" fill-opacity="0.59" stroke="#25A18E" stroke-width="4"/>
<path d="M-245 -29H187V55C187 60.5229 182.523 65 177 65H-235C-240.523 65 -245 60.5229 -245 55V-29Z" fill="white"/>
<path d="M-244.5 -28.5H186.5V55C186.5 60.2467 182.247 64.5 177 64.5H-235C-240.247 64.5 -244.5 60.2467 -244.5 55V-28.5Z" stroke="black" stroke-opacity="0.41"/>
<path d="M25.5 0C11.424 0 0 10.304 0 23C0 35.696 11.424 46 25.5 46C39.576 46 51 35.696 51 23C51 10.304 39.576 0 25.5 0ZM25.5 9.2C30.4215 9.2 34.425 12.811 34.425 17.25C34.425 21.689 30.4215 25.3 25.5 25.3C20.5785 25.3 16.575 21.689 16.575 17.25C16.575 12.811 20.5785 9.2 25.5 9.2ZM25.5 41.4C20.3235 41.4 14.2035 39.514 9.843 34.776C14.3096 31.6152 19.8227 29.8972 25.5 29.8972C31.1773 29.8972 36.6904 31.6152 41.157 34.776C36.7965 39.514 30.6765 41.4 25.5 41.4Z" fill="#000000"/>
</svg>
