<?xml version="1.0" standalone="no"?>
<!DOCTYPE svg PUBLIC "-//W3C//DTD SVG 20010904//EN"
 "http://www.w3.org/TR/2001/REC-SVG-20010904/DTD/svg10.dtd">
<svg version="1.0" xmlns="http://www.w3.org/2000/svg"
 width="773.000000pt" height="773.000000pt" viewBox="0 0 773.000000 773.000000"
 preserveAspectRatio="xMidYMid meet">
<metadata>
Created by potrace 1.14, written by Peter Selinger 2001-2017
</metadata>
<g transform="translate(0.000000,773.000000) scale(0.100000,-0.100000)"
fill="#000000" stroke="none">
<path d="M3740 5260 c-20 -10 -67 -53 -105 -96 -95 -105 -115 -124 -134 -125
-9 0 -23 -2 -31 -4 -8 -2 -29 -6 -46 -9 -51 -10 -214 -64 -272 -91 -29 -14
-57 -25 -61 -25 -5 0 -11 -4 -13 -9 -1 -5 -10 -11 -18 -13 -8 -2 -19 -7 -25
-11 -5 -4 -35 -26 -65 -48 -30 -22 -58 -46 -63 -54 -7 -13 -115 -15 -797 -15
-704 0 -790 -2 -804 -16 -14 -14 -16 -122 -16 -1036 0 -960 1 -1022 18 -1034
14 -11 187 -13 930 -14 501 0 912 -3 913 -7 0 -5 2 -34 3 -65 2 -32 6 -61 9
-65 4 -3 7 -15 7 -25 0 -10 3 -18 8 -18 4 0 24 -17 45 -37 22 -20 58 -46 80
-58 69 -37 151 -76 167 -81 8 -2 42 -13 75 -25 33 -11 65 -22 70 -23 23 -6 91
-20 110 -22 11 -1 20 -3 20 -4 0 -3 45 -10 75 -11 14 -1 30 -5 35 -9 12 -9
295 -5 350 5 22 4 49 9 60 10 11 2 22 4 25 5 3 1 9 2 13 1 5 -1 30 5 58 13 27
8 49 13 49 11 0 -2 29 7 64 19 36 13 67 21 70 18 3 -3 6 0 6 6 0 7 8 12 18 12
10 0 28 7 40 16 12 8 22 13 22 10 0 -13 147 78 193 119 37 34 46 60 49 154 2
45 5 81 8 81 3 0 6 15 6 33 0 17 6 86 14 152 18 169 19 172 25 250 3 39 9 104
14 145 5 41 9 82 9 90 0 8 3 38 7 65 8 60 11 89 19 180 3 39 9 90 12 115 3 25
7 68 9 95 2 28 6 73 9 100 14 114 26 231 26 253 0 22 -1 22 -24 6 -14 -8 -27
-15 -31 -15 -3 1 -20 -6 -38 -16 -17 -9 -41 -18 -51 -20 -11 -2 -24 -7 -30
-12 -10 -8 -129 -46 -180 -57 -12 -3 -25 -6 -31 -8 -13 -3 -111 -24 -150 -31
-16 -3 -48 -8 -70 -10 -22 -3 -53 -6 -70 -8 -123 -16 -181 -19 -349 -18 -201
1 -288 5 -304 15 -6 3 -21 6 -33 6 -51 0 -99 5 -99 10 0 3 -13 6 -30 6 -16 1
-37 5 -47 9 -10 4 -33 9 -51 11 -18 2 -37 6 -42 9 -6 3 -10 53 -10 111 0 97 1
104 20 104 11 0 20 -3 20 -8 0 -4 15 -8 33 -9 17 0 66 -6 107 -12 80 -12 145
-20 225 -27 67 -6 365 -6 440 1 78 6 130 12 130 14 0 1 25 4 55 6 52 5 95 12
95 15 0 2 45 10 65 11 31 2 205 51 215 60 5 5 16 9 25 9 20 0 142 51 158 67 7
7 18 13 24 13 14 0 96 67 128 104 43 50 73 147 50 161 -6 3 -8 10 -5 15 20 32
-81 138 -184 195 -20 11 -39 25 -43 30 -5 7 -8 7 -8 0 0 -7 -3 -7 -8 0 -22 30
-299 125 -374 129 -10 0 -18 4 -18 8 0 4 -6 5 -14 2 -14 -5 -108 85 -130 123
-20 37 -113 106 -128 97 -5 -3 -8 0 -8 5 0 8 -78 11 -242 11 -217 -1 -247 -3
-278 -20z m450 -224 c0 -4 7 -6 15 -2 8 3 15 1 15 -4 0 -6 4 -10 10 -10 12 0
50 -32 50 -42 0 -5 8 -16 18 -26 18 -19 60 -68 167 -197 37 -44 75 -89 84
-100 35 -42 34 -44 -31 -44 -149 -2 -181 1 -200 21 -10 10 -15 18 -10 18 4 0
2 4 -4 8 -6 4 -39 42 -73 85 l-61 77 -154 0 -154 0 -58 -72 c-33 -40 -65 -79
-72 -86 -6 -8 -17 -22 -22 -32 -6 -11 -17 -17 -25 -14 -8 4 -15 1 -15 -5 0 -8
-6 -9 -17 -3 -22 10 -143 9 -161 -2 -7 -4 -12 -2 -12 4 0 6 -4 8 -10 5 -21
-13 -9 13 26 58 20 26 41 47 45 47 5 0 9 6 9 13 0 7 8 20 18 29 24 23 48 51
127 148 89 110 89 110 134 124 45 13 361 15 361 2z"/>
<path d="M5265 5036 c-16 -7 -56 -41 -87 -76 l-57 -63 54 -60 c30 -33 55 -65
55 -70 0 -6 11 3 25 19 14 16 25 32 25 36 0 3 19 13 43 22 32 12 75 15 185 13
l144 -2 41 -46 c67 -73 107 -121 107 -125 0 -2 8 -12 18 -22 31 -34 107 -124
115 -138 9 -15 -7 -17 -123 -15 -70 2 -67 0 -130 80 -72 93 -56 86 -196 86
l-126 1 -47 -61 c-26 -33 -58 -78 -71 -100 -32 -55 -118 -143 -158 -162 -19
-9 -39 -27 -45 -41 -10 -22 -7 -27 31 -59 23 -19 42 -40 42 -47 0 -7 6 -13 13
-13 6 0 46 -3 87 -7 41 -4 101 -9 133 -12 32 -2 62 -6 67 -9 5 -3 11 -1 15 5
4 6 11 8 16 4 6 -3 42 -5 82 -4 132 3 146 4 317 25 14 2 36 6 50 9 14 3 36 8
50 10 35 6 152 35 170 43 8 4 20 8 25 8 6 1 32 12 58 23 27 12 53 22 58 22 5
0 9 5 9 10 0 6 6 10 14 10 22 0 111 74 134 112 25 40 33 90 21 134 -9 31 -81
105 -134 137 -53 31 -174 87 -190 87 -8 0 -15 5 -15 11 0 5 -4 8 -9 5 -5 -4
-22 -1 -38 6 -15 6 -36 12 -45 13 -10 2 -20 4 -23 5 -9 4 -19 7 -62 15 -24 4
-43 10 -43 14 0 3 -21 29 -46 56 -25 28 -56 61 -68 74 -40 45 -72 51 -273 51
-133 -1 -197 -5 -218 -14z"/>
<path d="M6245 4134 c-36 -21 -218 -85 -255 -90 -17 -2 -72 -12 -113 -20 -16
-3 -41 -7 -55 -9 -15 -2 -54 -7 -87 -11 -78 -10 -424 -10 -495 -1 -147 20
-138 21 -145 -20 -3 -21 -8 -51 -11 -68 -3 -16 -9 -82 -14 -145 -8 -107 -25
-279 -52 -515 -6 -55 -15 -143 -19 -195 -9 -100 -12 -135 -30 -289 -11 -93
-11 -95 13 -113 12 -9 30 -18 39 -18 9 0 29 -7 45 -14 29 -15 128 -44 174 -51
14 -2 49 -9 79 -14 65 -13 271 -14 326 -2 22 5 57 12 79 15 21 4 42 8 46 11 3
2 22 7 40 10 32 6 136 43 190 68 46 22 125 75 146 98 28 31 33 48 39 148 3 47
10 90 16 97 7 8 7 14 -1 19 -6 3 -8 10 -5 14 2 5 7 35 10 67 3 32 8 79 11 104
3 25 7 65 9 90 2 25 7 70 10 100 3 30 8 73 10 95 1 22 6 67 9 100 4 33 9 85
12 115 3 30 7 69 9 85 4 29 14 136 20 200 1 17 6 60 10 98 8 77 4 79 -60 41z"/>
</g>
</svg>
