<svg width="69" height="60" viewBox="0 0 69 60" fill="none" xmlns="http://www.w3.org/2000/svg">
<g clip-path="url(#clip0_54_375)">
<path d="M48.3563 26.2728C52.503 26.2728 55.8645 23.5688 55.8645 20.2333C55.8645 16.8979 52.503 14.1939 48.3563 14.1939C44.2097 14.1939 40.8481 16.8979 40.8481 20.2333C40.8481 23.5688 44.2097 26.2728 48.3563 26.2728Z" fill="#FF6584"/>
<path d="M68.9517 24.7363C68.9683 24.7338 68.9807 24.7245 69 24.7269C68.9915 24.7008 68.9805 24.6752 68.9671 24.6505C68.9432 24.6767 68.9188 24.7034 68.8975 24.7268L68.9517 24.7363Z" fill="white"/>
<path d="M18.593 34.5275C18.6368 35.8451 18.9112 37.1512 19.4081 38.4073C19.4194 38.4365 19.4313 38.4652 19.4432 38.4943H22.485C22.4818 38.4682 22.4785 38.4391 22.4753 38.4073C22.2724 36.5318 21.1031 25.1168 22.5012 23.1647C22.379 23.3231 18.3572 28.5681 18.593 34.5275Z" fill="#E6E6E6"/>
<path d="M18.8213 38.4073C18.8467 38.4365 18.8732 38.4656 18.9003 38.4944H21.1822C21.1649 38.4696 21.1448 38.4404 21.1216 38.4073C20.7446 37.86 19.6288 36.2238 18.5931 34.5275C17.48 32.7046 16.4588 30.8126 16.5448 30.1278C16.5183 30.2823 15.7482 34.9904 18.8213 38.4073Z" fill="#E6E6E6"/>
<path d="M42.5332 38.7211C42.495 39.8699 42.2558 41.0085 41.8226 42.1036C41.8127 42.129 41.8024 42.154 41.792 42.1795H39.1401C39.143 42.1567 39.1458 42.1313 39.1486 42.1036C39.3254 40.4685 40.3449 30.5167 39.126 28.8149C39.2325 28.9529 42.7388 33.5256 42.5332 38.7211Z" fill="#E6E6E6"/>
<path d="M42.3343 42.1036C42.3122 42.129 42.2891 42.1544 42.2655 42.1795H40.2761C40.2912 42.1578 40.3087 42.1324 40.3289 42.1036C40.6576 41.6265 41.6304 40.2 42.5333 38.7211C43.5037 37.1319 44.394 35.4824 44.319 34.8854C44.3421 35.02 45.0136 39.1247 42.3343 42.1036Z" fill="#E6E6E6"/>
<path d="M12.2122 4.9021L13.4489 4.10648C12.4882 4.02122 12.0934 4.44268 11.9319 4.77627C11.1813 4.52558 10.3643 4.85412 10.3643 4.85412L12.8386 5.57668C12.7138 5.30849 12.4965 5.07448 12.2122 4.9021Z" fill="#3F3D56"/>
<path d="M49.46 0.80676L50.6967 0.0111423C49.736 -0.0741169 49.3412 0.347343 49.1797 0.680932C48.4291 0.430241 47.6121 0.758784 47.6121 0.758784L50.0864 1.48134C49.9616 1.21315 49.7443 0.979146 49.46 0.80676Z" fill="#3F3D56"/>
<path d="M67.6555 32.2696C67.6555 32.9289 67.6269 33.5827 67.5698 34.2312C67.1293 39.3472 64.924 44.263 61.2016 48.4264C60.7152 48.9725 60.2044 49.5033 59.6693 50.0188C58.2828 51.3563 56.7434 52.5863 55.0713 53.6926L47.7419 50.2331L43.3596 42.0059C43.3596 42.0059 49.8981 31.3569 67.6438 31.55C67.6512 31.789 67.6551 32.0289 67.6555 32.2696Z" fill="#3F3D56"/>
<path d="M67.5698 34.2312C67.2327 38.0542 65.914 41.7795 63.6971 45.172C61.4802 48.5646 58.4132 51.5506 54.6896 53.9419L47.8804 50.7282L43.9941 43.4316C43.9941 43.4316 50.2915 33.1756 67.5698 34.2312Z" fill="#25A18E"/>
<path d="M61.2017 48.4264C60.7153 48.9725 60.2045 49.5033 59.6694 50.0188C56.0839 53.484 51.5025 56.194 46.3218 57.9143C45.2727 58.2622 44.199 58.569 43.1006 58.8347C35.1695 60.5312 26.7671 60.1021 19.1664 57.6123C11.6495 54.9136 5.57499 50.1474 2.03404 44.1699C1.55817 43.3652 1.13024 42.5401 0.750244 41.6946C7.37754 37.7894 20.4365 32.1974 34.6693 37.6312C38.6063 39.1342 42.1217 40.5043 45.2156 41.7414C53.0664 44.8717 58.2915 47.1284 61.2017 48.4264Z" fill="#3F3D56"/>
<path d="M59.6693 50.0188C55.9629 53.5918 51.199 56.3577 45.8158 58.062C40.4325 59.7663 34.6029 60.3542 28.8633 59.7717C23.1236 59.1893 17.6582 57.4551 12.9699 54.7287C8.28157 52.0024 4.52093 48.3714 2.03394 44.1699C7.56884 40.6491 20.3349 34.3222 34.3445 39.6701C37.9474 41.0455 41.1639 42.2993 43.9941 43.4315C52.2447 46.7209 57.3269 48.9563 59.6693 50.0188Z" fill="#25A18E"/>
<path d="M49.9003 56.5269C48.7412 57.0437 47.5464 57.5069 46.3217 57.9142C42.154 59.2958 37.6891 60.0045 33.1814 60C27.8473 59.9983 22.5864 59.0019 17.8118 57.0891C13.0371 55.1764 8.8788 52.3992 5.66333 48.9759C13.897 48.2775 36.6563 47.3359 49.9003 56.5269Z" fill="#3F3D56"/>
<path d="M46.3216 57.9143C39.859 60.0518 32.7419 60.561 25.9117 59.3744C19.0816 58.1879 12.8601 55.3616 8.07007 51.2692C11.0649 50.9154 34.5771 48.4851 46.3216 57.9143Z" fill="#25A18E"/>
<path d="M61.8731 16.8921V16.8929C37.2568 2.25285 9.05354 12.5573 8.83569 12.6364V12.6356C12.0324 10.0645 15.8282 8.02598 20.0058 6.6367C24.1834 5.24741 28.6607 4.53469 33.1812 4.53933C45.1489 4.53933 55.692 9.44487 61.8731 16.8921Z" fill="#E6E6E6"/>
<path d="M10.8102 32.8073C14.9745 32.2033 17.1084 26.1732 15.5764 19.3385C14.0445 12.5039 9.42677 7.45288 5.2625 8.05681C1.09822 8.66074 -1.0357 14.6909 0.496254 21.5256C2.02821 28.3602 6.64591 33.4112 10.8102 32.8073Z" fill="#3F3D56"/>
<path d="M11.8804 40.7892C11.6335 25.7769 5.38909 11.6888 5.32607 11.5484L4.75659 11.7136C4.81931 11.8534 11.0295 25.8677 11.2751 40.7958L11.8804 40.7892Z" fill="#25A18E"/>
<path d="M0.801552 18.7337L0.615234 19.1971L8.09105 21.1419L8.27737 20.6784L0.801552 18.7337Z" fill="#25A18E"/>
<path d="M14.8642 18.2117L8.70459 22.1356L9.08052 22.5174L15.2401 18.5935L14.8642 18.2117Z" fill="#25A18E"/>
<path d="M30.8336 30.6429C35.4124 30.6429 39.1242 24.5509 39.1242 17.0359C39.1242 9.52092 35.4124 3.42883 30.8336 3.42883C26.2548 3.42883 22.543 9.52092 22.543 17.0359C22.543 24.5509 26.2548 30.6429 30.8336 30.6429Z" fill="#3F3D56"/>
<path d="M30.0678 39.3085C33.3883 23.2834 30.1013 7.31627 30.0677 7.15698L29.4218 7.24499C29.4552 7.4035 32.7234 23.2868 29.4216 39.222L30.0678 39.3085Z" fill="#25A18E"/>
<path d="M23.5344 14.11L23.2253 14.5747L30.7223 17.8003L31.0313 17.3355L23.5344 14.11Z" fill="#25A18E"/>
<path d="M38.6348 15.7257L31.1387 18.9531L31.4479 19.4178L38.9439 16.1904L38.6348 15.7257Z" fill="#25A18E"/>
<path d="M66.8455 26.266C63.8036 24.8923 60.6256 23.7235 57.3439 22.7716C39.1984 17.4901 21.2052 19.5256 14.1624 27.0843C19.6433 17.8244 39.2006 14.9127 58.9365 20.657C61.2335 21.325 63.4815 22.0974 65.6695 22.9707C66.1463 24.0484 66.539 25.149 66.8455 26.266Z" fill="#E6E6E6"/>
<path d="M42.3389 11.365L43.5756 10.5694C42.6149 10.4841 42.2201 10.9056 42.0586 11.2392C41.308 10.9885 40.491 11.317 40.491 11.317L42.9653 12.0396C42.8405 11.7714 42.6232 11.5374 42.3389 11.365Z" fill="#3F3D56"/>
</g>
<defs>
<clipPath id="clip0_54_375">
<rect width="69" height="60" fill="white"/>
</clipPath>
</defs>
</svg>
