<svg width="432" height="240" viewBox="0 0 432 240" fill="none" xmlns="http://www.w3.org/2000/svg">
<g clip-path="url(#clip0_53_266)">
<path d="M101.628 208.84C100.519 218.561 96.6504 227.523 92.3371 236.145C92.1237 236.576 91.91 237 91.6907 237.43H35.81C34.817 237.038 33.841 236.608 32.8711 236.145C29.2956 234.473 25.9003 232.359 22.7492 229.843C4.57273 215.271 -2.4251 187.735 0.739024 163.064C2.6962 147.729 8.74731 132.078 20.5205 123.823C26.9134 119.494 34.5381 118.008 41.8727 119.659C42.0633 119.698 42.2538 119.743 42.4444 119.794C48.5993 121.336 54.0846 125.165 57.2084 131.339C62.8208 142.435 59.4776 156.177 56.7175 168.525C53.9633 180.88 52.4739 195.657 60.4591 204.767C59.2876 200.958 59.049 196.871 59.7678 192.926C60.4866 188.981 62.1367 185.32 64.5487 182.319C66.9606 179.319 70.0472 177.087 73.4912 175.854C76.9351 174.621 80.612 174.431 84.1439 175.304C84.7213 175.438 85.2931 175.593 85.8589 175.785C87.2151 176.227 88.5224 176.837 89.7563 177.604C99.1737 183.456 102.984 196.935 101.628 208.84Z" fill="#F2F2F2"/>
<path d="M65.1941 236.145C66.4413 236.614 67.6999 237.038 68.9644 237.43H63.4966C62.4802 237.032 61.4716 236.603 60.4709 236.145C60.2515 236.049 60.0263 235.946 59.8069 235.843C51.5559 231.995 43.9575 226.213 38.2123 218.516C35.3971 214.792 33.1004 210.619 31.3991 206.136C29.5489 201.072 28.374 195.734 27.9117 190.292C26.8722 179.126 27.9289 167.652 29.9151 156.685C31.9639 145.317 35.2727 134.277 39.7655 123.816C40.3082 122.563 40.8664 121.317 41.4399 120.077C41.4804 119.977 41.5401 119.887 41.6149 119.815C41.6897 119.743 41.7778 119.69 41.8729 119.659C41.9715 119.639 42.0728 119.64 42.171 119.663C42.2691 119.686 42.3621 119.731 42.4447 119.794C42.6432 119.921 42.7905 120.128 42.856 120.371C42.9216 120.615 42.9004 120.878 42.7968 121.105C38.1662 131.152 34.6565 141.791 32.3459 152.785C30.0825 163.514 28.795 174.738 29.2396 185.763C29.6551 196.068 32.0747 206.2 37.5656 214.629C42.6795 222.288 49.4074 228.43 57.1568 232.515C59.7612 233.921 62.4461 235.133 65.1941 236.145Z" fill="white"/>
<path d="M87.2333 237.43H85.1143C84.814 237.006 84.5253 236.576 84.2422 236.145C80.0738 229.842 77.2323 222.576 75.9278 214.886C74.1507 204.115 75.5355 192.995 79.8774 183.167C81.09 180.412 82.5177 177.781 84.1441 175.304C84.7215 175.438 85.2933 175.593 85.8591 175.785C81.5754 182.098 78.6947 189.449 77.4522 197.237C76.4175 204.051 76.6697 211.029 78.1926 217.728C79.7156 224.427 82.4759 230.699 86.2978 236.145C86.604 236.582 86.9158 237.012 87.2333 237.43Z" fill="white"/>
<path d="M195.559 119.665C195.785 118.688 195.815 117.667 195.648 116.676C195.48 115.684 195.12 114.745 194.591 113.925C194.062 113.106 193.378 112.425 192.588 111.931C191.797 111.437 190.919 111.142 190.014 111.066L154.726 61.9757L145.995 71.0311L183.273 117.924C183.26 119.623 183.807 121.268 184.811 122.547C185.815 123.827 187.207 124.652 188.721 124.867C190.236 125.082 191.768 124.67 193.029 123.712C194.289 122.753 195.189 121.313 195.559 119.665Z" fill="#FFB8B8"/>
<path d="M161.496 69.7739L150.344 79.277C150.026 79.5474 149.66 79.7385 149.271 79.8373C148.881 79.9362 148.477 79.9404 148.086 79.8497C147.694 79.759 147.325 79.5755 147.003 79.3118C146.682 79.0481 146.415 78.7103 146.221 78.3214L139.427 64.6952C138.193 62.8809 137.656 60.5962 137.934 58.342C138.211 56.0878 139.281 54.0481 140.908 52.67C142.535 51.2919 144.587 50.6879 146.614 50.9905C148.64 51.2931 150.476 52.4775 151.719 54.2841L161.741 65.0958C162.028 65.4054 162.252 65.7802 162.397 66.1947C162.542 66.6091 162.605 67.0534 162.581 67.4974C162.558 67.9413 162.449 68.3745 162.262 68.7673C162.074 69.1602 161.813 69.5035 161.496 69.7739H161.496Z" fill="#CCCCCC"/>
<path d="M142.767 40.1382C150.599 40.1382 156.948 33.0734 156.948 24.3586C156.948 15.6437 150.599 8.57892 142.767 8.57892C134.935 8.57892 128.585 15.6437 128.585 24.3586C128.585 33.0734 134.935 40.1382 142.767 40.1382Z" fill="#FFB8B8"/>
<path d="M173.039 229.044H180.118L179.444 214.301L168.996 214.302L173.039 229.044Z" fill="#FFB8B8"/>
<path d="M171.233 226.472L185.174 226.471H185.175C186.341 226.471 187.496 226.727 188.574 227.224C189.652 227.721 190.632 228.449 191.457 229.367C192.282 230.284 192.936 231.374 193.382 232.574C193.829 233.773 194.059 235.058 194.059 236.357V236.678L171.234 236.679L171.233 226.472Z" fill="#2F2E41"/>
<path d="M97.5657 217.892L103.588 222.031L109.978 209.095L102.69 204.022L97.5657 217.892Z" fill="#FFB8B8"/>
<path d="M97.2442 214.648L109.104 222.8L109.105 222.8C110.098 223.482 110.96 224.376 111.642 225.429C112.324 226.481 112.814 227.674 113.082 228.937C113.35 230.2 113.392 231.51 113.206 232.792C113.019 234.073 112.607 235.301 111.994 236.405L111.842 236.679L92.4236 223.332L97.2442 214.648Z" fill="#2F2E41"/>
<path d="M172.527 224.721C172.001 224.721 171.487 224.542 171.054 224.21C170.621 223.877 170.29 223.405 170.104 222.857L144.498 154.739C144.443 154.572 144.348 154.426 144.223 154.316C144.098 154.206 143.948 154.137 143.79 154.115C143.632 154.094 143.471 154.121 143.326 154.195C143.181 154.268 143.057 154.385 142.968 154.532L107.791 216.19C107.447 216.765 106.929 217.182 106.331 217.367C105.734 217.552 105.097 217.492 104.535 217.199L99.7221 214.699C99.1056 214.376 98.6273 213.797 98.3896 213.086C98.1519 212.375 98.1736 211.589 98.4502 210.896L127.269 139.416C126.64 137.712 120.502 120.221 129.933 111.58L129.999 111.534L155.571 98.8416L156.216 120.669L181.705 219.073C181.801 219.443 181.83 219.831 181.789 220.214C181.748 220.596 181.639 220.966 181.468 221.301C181.297 221.636 181.067 221.93 180.793 222.165C180.518 222.4 180.204 222.572 179.87 222.67L173.193 224.625C172.976 224.689 172.752 224.721 172.527 224.721Z" fill="#2F2E41"/>
<path d="M155.959 66.9127C154.985 62.5641 153.604 58.181 151.755 56.1575C151.074 55.4196 150.435 54.6364 149.841 53.8121C148.597 52.0682 147.031 50.641 145.25 49.6264C145.902 49.2228 146.284 48.7415 146.284 48.2235C146.284 46.8041 143.44 45.6536 139.932 45.6536C136.425 45.6536 133.581 46.8041 133.581 48.2235C133.59 48.3883 133.627 48.5496 133.692 48.6982C133.757 48.8468 133.847 48.9797 133.958 49.0892C131.668 50.1281 129.678 51.8466 128.204 54.0574C126.731 56.2681 125.831 58.8864 125.602 61.627C124.782 71.4027 124.543 83.8984 127.418 91.8025C129.829 98.3385 130.021 105.628 127.957 112.309C127.817 112.775 127.8 113.275 127.908 113.751C128.015 114.226 128.244 114.658 128.565 114.994C128.886 115.33 129.287 115.556 129.721 115.646C130.154 115.736 130.602 115.686 131.011 115.502L156.385 104.124C156.813 103.933 157.179 103.603 157.436 103.179C157.694 102.754 157.832 102.253 157.832 101.741V84.46C157.852 78.5478 157.223 72.655 155.959 66.9127Z" fill="#CCCCCC"/>
<path d="M107.408 138.086C108.291 137.857 109.119 137.416 109.832 136.794C110.546 136.171 111.128 135.382 111.538 134.482C111.948 133.582 112.175 132.593 112.204 131.584C112.233 130.576 112.063 129.573 111.706 128.645L131.56 70.3886L121.492 67.4962L103.128 125.153C101.768 125.923 100.709 127.223 100.151 128.804C99.5944 130.386 99.578 132.14 100.106 133.734C100.633 135.328 101.668 136.652 103.014 137.454C104.36 138.256 105.923 138.481 107.408 138.086V138.086Z" fill="#FFB8B8"/>
<path d="M131.477 81.4426L118.755 74.8165C118.393 74.6279 118.072 74.3548 117.813 74.0157C117.555 73.6765 117.365 73.2794 117.257 72.8513C117.149 72.4232 117.125 71.9742 117.187 71.5348C117.248 71.0954 117.395 70.6761 117.615 70.3053L125.347 57.3129C126.225 55.2591 127.799 53.6764 129.724 52.9115C131.649 52.1466 133.768 52.2619 135.617 53.2321C137.465 54.2024 138.893 55.9484 139.587 58.0878C140.281 60.2271 140.185 62.5853 139.319 64.6456L135.321 79.527C135.206 79.953 135.01 80.3466 134.747 80.6809C134.483 81.0151 134.158 81.2823 133.793 81.4641C133.428 81.6458 133.033 81.738 132.633 81.7343C132.233 81.7306 131.839 81.6311 131.477 81.4426Z" fill="#CCCCCC"/>
<path d="M155.793 20.4747C156.433 20.559 157.081 20.4287 157.654 20.1005C158.7 19.3388 158.597 17.6073 158.243 16.2732C157.361 13.075 155.769 10.1755 153.614 7.84241C151.459 5.5093 148.811 3.81768 145.914 2.92366C143.895 2.32662 141.34 2.3497 140.185 4.28661C137.283 2.13521 133.784 1.21238 130.322 1.68547C126.861 2.15855 123.666 3.99623 121.318 6.86524C118.949 9.75901 117.592 13.5313 116.888 17.3662C115.676 23.9722 110.487 37.5991 113.362 43.5342C115.275 47.4837 124.078 44.4065 127.802 46.1267C131.526 47.847 136.052 47.6541 139.36 45.0886C142.668 42.523 144.406 37.4573 142.988 33.2574C142.439 31.6332 141.488 30.2226 140.738 28.7015C139.988 27.1803 139.427 25.4219 139.762 23.7273C140.283 21.0884 151.476 20.3758 155.793 20.4747Z" fill="#2F2E41"/>
<path d="M275.418 236.788C275.419 236.872 275.404 236.956 275.375 237.034C275.346 237.112 275.304 237.183 275.25 237.243C275.196 237.302 275.133 237.35 275.062 237.382C274.992 237.414 274.917 237.43 274.841 237.43H0.577397C0.424262 237.43 0.277398 237.362 0.169115 237.242C0.0608323 237.121 0 236.958 0 236.788C0 236.617 0.0608323 236.454 0.169115 236.333C0.277398 236.213 0.424262 236.145 0.577397 236.145H274.841C274.917 236.145 274.992 236.161 275.062 236.193C275.133 236.226 275.196 236.273 275.25 236.333C275.304 236.392 275.346 236.463 275.375 236.541C275.404 236.62 275.419 236.703 275.418 236.788Z" fill="#3F3D56"/>
<path d="M316.904 240C328.066 240 337.113 238.274 337.113 236.145C337.113 234.016 328.066 232.29 316.904 232.29C305.743 232.29 296.696 234.016 296.696 236.145C296.696 238.274 305.743 240 316.904 240Z" fill="#00C9AB"/>
<path d="M431.423 237.713H354.051C353.898 237.713 353.751 237.645 353.643 237.525C353.535 237.404 353.474 237.241 353.474 237.07C353.474 236.9 353.535 236.737 353.643 236.616C353.751 236.496 353.898 236.428 354.051 236.428H431.423C431.576 236.428 431.723 236.496 431.831 236.616C431.939 236.737 432 236.9 432 237.07C432 237.241 431.939 237.404 431.831 237.525C431.723 237.645 431.576 237.713 431.423 237.713Z" fill="#3F3D56"/>
<path d="M301.883 68.9144C301.884 61.9151 304.041 55.1276 307.995 49.6834C311.948 44.2392 317.46 40.4673 323.61 38.9965C319.6 38.0389 315.448 38.0915 311.459 39.1503C307.469 40.209 303.744 42.2472 300.554 45.1155C297.364 47.9839 294.791 51.6097 293.024 55.7276C291.256 59.8455 290.339 64.3511 290.339 68.9144C290.339 73.4778 291.256 77.9834 293.024 82.1013C294.791 86.2192 297.364 89.845 300.554 92.7134C303.744 95.5817 307.469 97.6199 311.459 98.6786C315.448 99.7374 319.6 99.79 323.61 98.8324C317.46 97.3616 311.948 93.5896 307.995 88.1455C304.041 82.7013 301.884 75.9138 301.883 68.9144Z" fill="#00C9AB"/>
<path d="M271.955 68.9144C271.956 52.2205 277.443 36.1032 287.383 23.5986C297.322 11.094 311.029 3.06523 325.919 1.02474C317.279 -0.153886 308.512 0.722178 300.198 3.59499C291.885 6.46779 284.214 11.2719 277.694 17.6895C271.173 24.1071 265.952 31.9919 262.375 40.8225C258.797 49.6531 256.946 59.2282 256.942 68.9144C256.942 99.5959 297.494 186.116 312.724 217.53C313.277 218.673 314.098 219.628 315.1 220.294C316.101 220.96 317.246 221.311 318.413 221.311C319.58 221.311 320.725 220.96 321.726 220.294C322.728 219.628 323.549 218.673 324.102 217.53C324.672 216.354 325.282 215.092 325.919 213.768C309.523 179.709 271.955 98.4476 271.955 68.9144Z" fill="#00C9AB"/>
<path d="M318.465 222.08C317.192 222.091 315.941 221.713 314.848 220.987C313.755 220.26 312.863 219.213 312.269 217.961C295.475 183.325 256.418 99.478 256.418 69.0408C256.418 50.73 262.955 33.1692 274.591 20.2216C286.228 7.27391 302.01 0 318.466 0C334.922 0 350.704 7.27391 362.341 20.2216C373.977 33.1692 380.514 50.73 380.514 69.0408C380.514 99.4808 341.456 183.325 324.663 217.961C324.068 219.214 323.176 220.26 322.083 220.987C320.99 221.713 319.738 222.091 318.465 222.08ZM318.466 1.28493C302.322 1.3052 286.844 8.45025 275.428 21.1525C264.012 33.8548 257.591 51.077 257.573 69.0408C257.573 99.1853 296.534 182.8 313.285 217.351C313.788 218.392 314.536 219.262 315.448 219.868C316.36 220.475 317.403 220.795 318.466 220.795C319.528 220.795 320.571 220.475 321.483 219.868C322.395 219.262 323.143 218.392 323.647 217.351C340.398 182.801 379.359 99.1881 379.359 69.0408C379.341 51.077 372.92 33.8548 361.504 21.1525C350.088 8.45025 334.61 1.3052 318.466 1.28493Z" fill="#3F3D56"/>
<path d="M318.466 100.282C312.913 100.282 307.484 98.4502 302.867 95.0174C298.249 91.5845 294.651 86.7053 292.525 80.9966C290.4 75.2879 289.844 69.0062 290.928 62.9459C292.011 56.8856 294.685 51.3188 298.612 46.9495C302.538 42.5802 307.541 39.6047 312.988 38.3992C318.434 37.1937 324.08 37.8124 329.21 40.1771C334.341 42.5417 338.726 46.546 341.811 51.6837C344.896 56.8214 346.543 62.8617 346.543 69.0408C346.535 77.3236 343.574 85.2645 338.31 91.1214C333.047 96.9783 325.91 100.273 318.466 100.282ZM318.466 39.0839C313.141 39.0838 307.936 40.8406 303.508 44.1322C299.081 47.4239 295.63 52.1025 293.592 57.5763C291.555 63.0502 291.021 69.0735 292.06 74.8846C293.099 80.6956 295.663 86.0335 299.428 90.223C303.193 94.4126 307.99 97.2658 313.213 98.4217C318.435 99.5777 323.849 98.9845 328.768 96.7172C333.688 94.4498 337.893 90.6102 340.851 85.6839C343.809 80.7575 345.388 74.9657 345.388 69.0408C345.38 61.0986 342.541 53.4842 337.494 47.8681C332.447 42.2521 325.604 39.093 318.466 39.0839V39.0839Z" fill="#3F3D56"/>
</g>
<defs>
<clipPath id="clip0_53_266">
<rect width="432" height="240" fill="white"/>
</clipPath>
</defs>
</svg>
