<svg width="31" height="30" viewBox="0 0 31 30" fill="none" xmlns="http://www.w3.org/2000/svg">
<path d="M15.516 12.5C14.1166 12.5 12.9717 13.625 12.9717 15C12.9717 16.375 14.1166 17.5 15.516 17.5C16.9154 17.5 18.0603 16.375 18.0603 15C18.0603 13.625 16.9154 12.5 15.516 12.5ZM15.516 5C14.1166 5 12.9717 6.125 12.9717 7.5C12.9717 8.875 14.1166 10 15.516 10C16.9154 10 18.0603 8.875 18.0603 7.5C18.0603 6.125 16.9154 5 15.516 5ZM15.516 20C14.1166 20 12.9717 21.125 12.9717 22.5C12.9717 23.875 14.1166 25 15.516 25C16.9154 25 18.0603 23.875 18.0603 22.5C18.0603 21.125 16.9154 20 15.516 20Z" fill="black"/>
</svg>
