<svg width="433" height="311" viewBox="0 0 433 311" fill="none" xmlns="http://www.w3.org/2000/svg">
<path d="M-20 115.647L2.39583 121.095C24.7917 126.278 69.5833 137.574 114.375 137.375C159.167 137.574 203.958 126.278 248.75 104.816C293.542 83.0879 338.333 50.529 383.125 55.9776C427.917 61.1605 472.708 105.015 517.5 110.198C562.292 115.647 607.083 83.0879 651.875 55.9776C696.667 28.6016 741.458 7.33867 786.25 7.13933C831.042 7.33867 875.833 28.6016 920.625 39.6982C965.417 50.529 1010.21 50.529 1055 88.5365C1099.79 126.278 1144.58 202.692 1189.37 197.044C1234.17 191.396 1278.96 105.015 1323.75 55.9776C1368.54 7.33867 1413.33 -3.95727 1458.12 1.6907C1502.92 7.33867 1547.71 28.6016 1592.5 39.6982C1637.29 50.529 1682.08 50.529 1726.87 77.6393C1771.67 105.015 1816.46 158.837 1861.25 175.316C1906.04 191.396 1950.83 170.133 1995.62 153.654C2040.42 137.574 2085.21 126.278 2130 142.757C2174.79 158.837 2219.58 202.692 2264.37 229.603C2309.17 256.514 2353.96 267.81 2398.75 224.154C2443.54 180.764 2488.33 83.0879 2533.12 55.9776C2577.92 28.6016 2622.71 72.4564 2667.5 88.5365C2712.29 105.015 2757.08 93.7193 2801.87 99.3673C2846.67 105.015 2891.46 126.278 2936.25 115.647C2981.04 105.015 3025.83 61.1605 3070.62 77.6393C3115.42 93.7194 3160.21 170.133 3182.6 207.875L3205 245.882V311H3182.6C3160.21 311 3115.42 311 3070.62 311C3025.83 311 2981.04 311 2936.25 311C2891.46 311 2846.67 311 2801.87 311C2757.08 311 2712.29 311 2667.5 311C2622.71 311 2577.92 311 2533.12 311C2488.33 311 2443.54 311 2398.75 311C2353.96 311 2309.17 311 2264.37 311C2219.58 311 2174.79 311 2130 311C2085.21 311 2040.42 311 1995.62 311C1950.83 311 1906.04 311 1861.25 311C1816.46 311 1771.67 311 1726.87 311C1682.08 311 1637.29 311 1592.5 311C1547.71 311 1502.92 311 1458.12 311C1413.33 311 1368.54 311 1323.75 311C1278.96 311 1234.17 311 1189.37 311C1144.58 311 1099.79 311 1055 311C1010.21 311 965.417 311 920.625 311C875.833 311 831.042 311 786.25 311C741.458 311 696.667 311 651.875 311C607.083 311 562.292 311 517.5 311C472.708 311 427.917 311 383.125 311C338.333 311 293.542 311 248.75 311C203.958 311 159.167 311 114.375 311C69.5833 311 24.7917 311 2.39583 311H-20V115.647Z" fill="url(#paint0_angular_51_225)"/>
<defs>
<radialGradient id="paint0_angular_51_225" cx="0" cy="0" r="1" gradientUnits="userSpaceOnUse" gradientTransform="translate(-20 155.681) rotate(-90) scale(155.319 1612.5)">
<stop stop-color="#81E770"/>
<stop offset="1" stop-color="#00C9AB"/>
</radialGradient>
</defs>
</svg>
